  0
SECTION
  2
HEADER
  9
$ACADVER
  1
AC1009
  9
$INSBASE
 10
0.0
 20
0.0
 30
0.0
  9
$EXTMIN
 10
0.0
 20
0.0
 30
0.0
  9
$EXTMAX
 10
0.0
 20
0.0
 30
0.0
  9
$LIMMIN
 10
0.0
 20
0.0
  9
$LIMMAX
 10
12.0
 20
9.0
  9
$ORTHOMODE
 70
     0
  9
$REGENMODE
 70
     1
  9
$FILLMODE
 70
     1
  9
$QTEXTMODE
 70
     0
  9
$MIRRTEXT
 70
     0
  9
$DRAGMODE
 70
     2
  9
$LTSCALE
 40
1.0
  9
$OSMODE
 70
    37
  9
$ATTMODE
 70
     1
  9
$TEXTSIZE
 40
0.2
  9
$TRACEWID
 40
0.05
  9
$TEXTSTYLE
  7
STANDARD
  9
$CLAYER
  8
0
  9
$CELTYPE
  6
BYLAYER
  9
$CECOLOR
 62
   256
  9
$DIMSCALE
 40
1.0
  9
$DIMASZ
 40
0.18
  9
$DIMEXO
 40
0.0625
  9
$DIMDLI
 40
0.38
  9
$DIMRND
 40
0.0
  9
$DIMDLE
 40
0.0
  9
$DIMEXE
 40
0.18
  9
$DIMTP
 40
0.0
  9
$DIMTM
 40
0.0
  9
$DIMTXT
 40
0.18
  9
$DIMCEN
 40
0.09
  9
$DIMTSZ
 40
0.0
  9
$DIMTOL
 70
     0
  9
$DIMLIM
 70
     0
  9
$DIMTIH
 70
     1
  9
$DIMTOH
 70
     1
  9
$DIMSE1
 70
     0
  9
$DIMSE2
 70
     0
  9
$DIMTAD
 70
     0
  9
$DIMZIN
 70
     0
  9
$DIMBLK
  1

  9
$DIMASO
 70
     1
  9
$DIMSHO
 70
     1
  9
$DIMPOST
  1

  9
$DIMAPOST
  1

  9
$DIMALT
 70
     0
  9
$DIMALTD
 70
     2
  9
$DIMALTF
 40
25.4
  9
$DIMLFAC
 40
1.0
  9
$DIMTOFL
 70
     0
  9
$DIMTVP
 40
0.0
  9
$DIMTIX
 70
     0
  9
$DIMSOXD
 70
     0
  9
$DIMSAH
 70
     0
  9
$DIMBLK1
  1

  9
$DIMBLK2
  1

  9
$DIMSTYLE
  2
STANDARD
  9
$DIMCLRD
 70
     0
  9
$DIMCLRE
 70
     0
  9
$DIMCLRT
 70
     0
  9
$DIMTFAC
 40
1.0
  9
$DIMGAP
 40
0.09
  9
$LUNITS
 70
     2
  9
$LUPREC
 70
     4
  9
$SKETCHINC
 40
0.1
  9
$FILLETRAD
 40
0.0
  9
$AUNITS
 70
     0
  9
$AUPREC
 70
     0
  9
$MENU
  1
.
  9
$ELEVATION
 40
0.0
  9
$PELEVATION
 40
0.0
  9
$THICKNESS
 40
0.0
  9
$LIMCHECK
 70
     0
  9
$BLIPMODE
 70
     0
  9
$CHAMFERA
 40
0.0
  9
$CHAMFERB
 40
0.0
  9
$SKPOLY
 70
     0
  9
$TDCREATE
 40
2460360.670624999795
  9
$TDUPDATE
 40
2460360.670624999795
  9
$TDINDWG
 40
0.0
  9
$TDUSRTIMER
 40
0.0
  9
$USRTIMER
 70
     1
  9
$ANGBASE
 50
0.0
  9
$ANGDIR
 70
     0
  9
$PDMODE
 70
     0
  9
$PDSIZE
 40
0.0
  9
$PLINEWID
 40
0.0
  9
$COORDS
 70
     1
  9
$SPLFRAME
 70
     0
  9
$SPLINETYPE
 70
     6
  9
$SPLINESEGS
 70
     8
  9
$ATTDIA
 70
     1
  9
$ATTREQ
 70
     1
  9
$HANDLING
 70
     1
  9
$HANDSEED
  5
14E
  9
$SURFTAB1
 70
     6
  9
$SURFTAB2
 70
     6
  9
$SURFTYPE
 70
     6
  9
$SURFU
 70
     6
  9
$SURFV
 70
     6
  9
$UCSNAME
  2

  9
$UCSORG
 10
0.0
 20
0.0
 30
0.0
  9
$UCSXDIR
 10
1.0
 20
0.0
 30
0.0
  9
$UCSYDIR
 10
0.0
 20
1.0
 30
0.0
  9
$PUCSNAME
  2

  9
$PUCSORG
 10
0.0
 20
0.0
 30
0.0
  9
$PUCSXDIR
 10
1.0
 20
0.0
 30
0.0
  9
$PUCSYDIR
 10
0.0
 20
1.0
 30
0.0
  9
$USERI1
 70
     0
  9
$USERI2
 70
     0
  9
$USERI3
 70
     0
  9
$USERI4
 70
     0
  9
$USERI5
 70
     0
  9
$USERR1
 40
0.0
  9
$USERR2
 40
0.0
  9
$USERR3
 40
0.0
  9
$USERR4
 40
0.0
  9
$USERR5
 40
0.0
  9
$WORLDVIEW
 70
     1
  9
$SHADEDGE
 70
     3
  9
$SHADEDIF
 70
    70
  9
$TILEMODE
 70
     1
  9
$MAXACTVP
 70
    64
  9
$PLIMCHECK
 70
     0
  9
$PEXTMIN
 10
100000000000000000000.0
 20
100000000000000000000.0
 30
100000000000000000000.0
  9
$PEXTMAX
 10
-100000000000000000000.0
 20
-100000000000000000000.0
 30
-100000000000000000000.0
  9
$PLIMMIN
 10
0.0
 20
0.0
  9
$PLIMMAX
 10
12.0
 20
9.0
  9
$UNITMODE
 70
     0
  9
$VISRETAIN
 70
     1
  9
$PLINEGEN
 70
     0
  9
$PSLTSCALE
 70
     1
  0
ENDSEC
  0
SECTION
  2
TABLES
  0
TABLE
  2
APPID
100
AcDbSymbolTable
 70
     0
  0
APPID
  5
1
100
AcDbSymbolTableRecord
100
AcDbRegAppTableRecord
  2
ACAD
 70
     0
  0
APPID
  5
2
100
AcDbSymbolTableRecord
100
AcDbRegAppTableRecord
  2
ACADANNOTATIVE
 70
     0
  0
APPID
  5
4
100
AcDbSymbolTableRecord
100
AcDbRegAppTableRecord
  2
ACAD_MLEADERVER
 70
     0
  0
APPID
  5
3
100
AcDbSymbolTableRecord
100
AcDbRegAppTableRecord
  2
ACAD_NAV_VCDISPLAY
 70
     0
  0
ENDTAB
  0
TABLE
  2
BLOCK_RECORD
100
AcDbSymbolTable
 70
     0
  0
BLOCK_RECORD
  5
5
100
AcDbSymbolTableRecord
100
AcDbBlockTableRecord
  2
*MODEL_SPACE
 70
     0
  0
BLOCK_RECORD
  5
6
100
AcDbSymbolTableRecord
100
AcDbBlockTableRecord
  2
*PAPER_SPACE
 70
     0
  0
ENDTAB
  0
TABLE
  2
DIMSTYLE
100
AcDbSymbolTable
 70
     0
  0
DIMSTYLE
  5
A
100
AcDbSymbolTableRecord
100
AcDbDimStyleTableRecord
  2
ANNOTATIVE
 70
     0
  3

  4

  6

  7

 40
1.0
 41
0.18
 42
0.0625
 43
0.38
 44
0.18
 45
0.0
 46
0.0
 47
0.0
 48
0.0
 71
     0
 72
     0
 73
     1
 74
     1
 75
     0
 76
     0
 77
     0
 78
     0
140
0.18
141
0.09
142
0.0
143
25.4
144
1.0
145
0.0
146
1.0
147
0.09
170
     0
171
     2
172
     0
173
     0
174
     0
175
     0
176
     0
177
     0
178
     0
  0
DIMSTYLE
  5
9
100
AcDbSymbolTableRecord
100
AcDbDimStyleTableRecord
  2
STANDARD
 70
     0
  3

  4

  6

  7

 40
1.0
 41
0.18
 42
0.0625
 43
0.38
 44
0.18
 45
0.0
 46
0.0
 47
0.0
 48
0.0
 71
     0
 72
     0
 73
     1
 74
     1
 75
     0
 76
     0
 77
     0
 78
     0
140
0.18
141
0.09
142
0.0
143
25.4
144
1.0
145
0.0
146
1.0
147
0.09
170
     0
171
     2
172
     0
173
     0
174
     0
175
     0
176
     0
177
     0
178
     0
  0
ENDTAB
  0
TABLE
  2
LAYER
100
AcDbSymbolTable
 70
     0
  0
LAYER
  5
7
100
AcDbSymbolTableRecord
100
AcDbLayerTableRecord
  2
0
 70
     0
 62
     7
  6
CONTINUOUS
  0
ENDTAB
  0
TABLE
  2
LTYPE
100
AcDbSymbolTable
 70
     0
  0
LTYPE
  5
C
100
AcDbSymbolTableRecord
100
AcDbLinetypeTableRecord
  2
BYBLOCK
 70
     0
  3

 72
    65
 73
     0
 40
0.0
  0
LTYPE
  5
B
100
AcDbSymbolTableRecord
100
AcDbLinetypeTableRecord
  2
BYLAYER
 70
     0
  3

 72
    65
 73
     0
 40
0.0
  0
LTYPE
  5
8
100
AcDbSymbolTableRecord
100
AcDbLinetypeTableRecord
  2
CONTINUOUS
 70
     0
  3

 72
    65
 73
     0
 40
0.0
  0
ENDTAB
  0
TABLE
  2
STYLE
100
AcDbSymbolTable
 70
     0
  0
STYLE
  5
E
100
AcDbSymbolTableRecord
100
AcDbTextStyleTableRecord
  2
ANNOTATIVE
 70
     0
 40
0.0
 41
1.0
 50
0.0
 71
     0
 42
0.2
  3
txt
  4

  0
STYLE
  5
D
100
AcDbSymbolTableRecord
100
AcDbTextStyleTableRecord
  2
STANDARD
 70
     0
 40
0.0
 41
1.0
 50
0.0
 71
     0
 42
0.2
  3
txt
  4

  0
ENDTAB
  0
TABLE
  2
VPORT
100
AcDbSymbolTable
 70
     0
  0
VPORT
  5
F
100
AcDbSymbolTableRecord
100
AcDbViewportTableRecord
  2
*ACTIVE
 70
     0
 10
0.0
 20
0.0
 11
1.0
 21
1.0
 12
0.0
 22
0.0
 13
0.0
 23
0.0
 14
1.0
 24
1.0
 15
1.0
 25
1.0
 16
0.0
 26
0.0
 36
1.0
 17
0.0
 27
0.0
 37
0.0
 40
1.0
 41
1.0
 42
50.0
 43
0.0
 44
0.0
 50
0.0
 51
0.0
 71
     0
 72
  1000
 73
     1
 74
     3
 75
     0
 76
     0
 77
     0
 78
     0
  0
ENDTAB
  0
ENDSEC
  0
SECTION
  2
ENTITIES
  0
POLYLINE
  5
14D
100
AcDbEntity
  8
0
100
AcDb2dPolyline
 66
     1
 10
0.0
 20
0.0
 30
0.0
 70
     1
  0
VERTEX
  5
10
100
AcDbEntity
  8
0
100
AcDbVertex
100
AcDb2dVertex
 10
412.797813764594
 20
0.0
 30
0.0
 70
     0
 50
0.0
  0
VERTEX
  5
11
100
AcDbEntity
  8
0
100
AcDbVertex
100
AcDb2dVertex
 10
412.717823045751
 20
16.243491557773
 30
0.0
 70
     0
 50
0.0
  0
VERTEX
  5
12
100
AcDbEntity
  8
0
100
AcDbVertex
100
AcDb2dVertex
 10
412.6255970731
 20
22.488428047991
 30
0.0
 70
     0
 50
0.0
  0
VERTEX
  5
13
100
AcDbEntity
  8
0
100
AcDbVertex
100
AcDb2dVertex
 10
412.471926551469
 20
28.736252121732
 30
0.0
 70
     0
 50
0.0
  0
VERTEX
  5
14
100
AcDbEntity
  8
0
100
AcDbVertex
100
AcDb2dVertex
 10
412.256870510536
 20
34.988401868268
 30
0.0
 70
     0
 50
0.0
  0
VERTEX
  5
15
100
AcDbEntity
  8
0
100
AcDbVertex
100
AcDb2dVertex
 10
411.980511355487
 20
41.24630853679
 30
0.0
 70
     0
 50
0.0
  0
VERTEX
  5
16
100
AcDbEntity
  8
0
100
AcDbVertex
100
AcDb2dVertex
 10
411.642954636695
 20
47.51139426181
 30
0.0
 70
     0
 50
0.0
  0
VERTEX
  5
17
100
AcDbEntity
  8
0
100
AcDbVertex
100
AcDb2dVertex
 10
411.244328761981
 20
53.785069794417
 30
0.0
 70
     0
 50
0.0
  0
VERTEX
  5
18
100
AcDbEntity
  8
0
100
AcDbVertex
100
AcDb2dVertex
 10
410.784784657304
 20
60.068732242343
 30
0.0
 70
     0
 50
0.0
  0
VERTEX
  5
19
100
AcDbEntity
  8
0
100
AcDbVertex
100
AcDb2dVertex
 10
410.264495382614
 20
66.363762822432
 30
0.0
 70
     0
 50
0.0
  0
VERTEX
  5
1A
100
AcDbEntity
  8
0
100
AcDbVertex
100
AcDb2dVertex
 10
409.6836557102
 20
72.671524630241
 30
0.0
 70
     0
 50
0.0
  0
VERTEX
  5
1B
100
AcDbEntity
  8
0
100
AcDbVertex
100
AcDb2dVertex
 10
409.042481673253
 20
78.993360432095
 30
0.0
 70
     0
 50
0.0
  0
VERTEX
  5
1C
100
AcDbEntity
  8
0
100
AcDbVertex
100
AcDb2dVertex
 10
408.341210092533
 20
85.330590485988
 30
0.0
 70
     0
 50
0.0
  0
VERTEX
  5
1D
100
AcDbEntity
  8
0
100
AcDbVertex
100
AcDb2dVertex
 10
407.5800980889
 20
91.684510398268
 30
0.0
 70
     0
 50
0.0
  0
VERTEX
  5
1E
100
AcDbEntity
  8
0
100
AcDbVertex
100
AcDb2dVertex
 10
406.759422589211
 20
98.0563890237
 30
0.0
 70
     0
 50
0.0
  0
VERTEX
  5
1F
100
AcDbEntity
  8
0
100
AcDbVertex
100
AcDb2dVertex
 10
405.879479832561
 20
104.447466417048
 30
0.0
 70
     0
 50
0.0
  0
VERTEX
  5
20
100
AcDbEntity
  8
0
100
AcDbVertex
100
AcDb2dVertex
 10
404.940584883238
 20
110.858951844316
 30
0.0
 70
     0
 50
0.0
  0
VERTEX
  5
21
100
AcDbEntity
  8
0
100
AcDbVertex
100
AcDb2dVertex
 10
403.943071155999
 20
117.292021862112
 30
0.0
 70
     0
 50
0.0
  0
VERTEX
  5
22
100
AcDbEntity
  8
0
100
AcDbVertex
100
AcDb2dVertex
 10
402.88728995843
 20
123.747818473244
 30
0.0
 70
     0
 50
0.0
  0
VERTEX
  5
23
100
AcDbEntity
  8
0
100
AcDbVertex
100
AcDb2dVertex
 10
401.773610054274
 20
130.227447366514
 30
0.0
 70
     0
 50
0.0
  0
VERTEX
  5
24
100
AcDbEntity
  8
0
100
AcDbVertex
100
AcDb2dVertex
 10
400.602417250754
 20
136.731976247937
 30
0.0
 70
     0
 50
0.0
  0
VERTEX
  5
25
100
AcDbEntity
  8
0
100
AcDbVertex
100
AcDb2dVertex
 10
399.374114011987
 20
143.262433270228
 30
0.0
 70
     0
 50
0.0
  0
VERTEX
  5
26
100
AcDbEntity
  8
0
100
AcDbVertex
100
AcDb2dVertex
 10
398.08911909981
 20
149.819805566355
 30
0.0
 70
     0
 50
0.0
  0
VERTEX
  5
27
100
AcDbEntity
  8
0
100
AcDbVertex
100
AcDb2dVertex
 10
396.747867242544
 20
156.40503789223
 30
0.0
 70
     0
 50
0.0
  0
VERTEX
  5
28
100
AcDbEntity
  8
0
100
AcDbVertex
100
AcDb2dVertex
 10
395.350808831566
 20
163.019031382583
 30
0.0
 70
     0
 50
0.0
  0
VERTEX
  5
29
100
AcDbEntity
  8
0
100
AcDbVertex
100
AcDb2dVertex
 10
393.898409644925
 20
169.66264242302
 30
0.0
 70
     0
 50
0.0
  0
VERTEX
  5
2A
100
AcDbEntity
  8
0
100
AcDbVertex
100
AcDb2dVertex
 10
392.391150596772
 20
176.336681640441
 30
0.0
 70
     0
 50
0.0
  0
VERTEX
  5
2B
100
AcDbEntity
  8
0
100
AcDbVertex
100
AcDb2dVertex
 10
390.829527510954
 20
183.041913012669
 30
0.0
 70
     0
 50
0.0
  0
VERTEX
  5
2C
100
AcDbEntity
  8
0
100
AcDbVertex
100
AcDb2dVertex
 10
389.21405091682
 20
189.779053097455
 30
0.0
 70
     0
 50
0.0
  0
VERTEX
  5
2D
100
AcDbEntity
  8
0
100
AcDbVertex
100
AcDb2dVertex
 10
387.545245865029
 20
196.548770380038
 30
0.0
 70
     0
 50
0.0
  0
VERTEX
  5
2E
100
AcDbEntity
  8
0
100
AcDbVertex
100
AcDb2dVertex
 10
385.823651761069
 20
203.351684737457
 30
0.0
 70
     0
 50
0.0
  0
VERTEX
  5
2F
100
AcDbEntity
  8
0
100
AcDbVertex
100
AcDb2dVertex
 10
384.049822214056
 20
210.188367017241
 30
0.0
 70
     0
 50
0.0
  0
VERTEX
  5
30
100
AcDbEntity
  8
0
100
AcDbVertex
100
AcDb2dVertex
 10
382.22432489842
 20
217.059338727312
 30
0.0
 70
     0
 50
0.0
  0
VERTEX
  5
31
100
AcDbEntity
  8
0
100
AcDbVertex
100
AcDb2dVertex
 10
380.347741426121
 20
223.965071833331
 30
0.0
 70
     0
 50
0.0
  0
VERTEX
  5
32
100
AcDbEntity
  8
0
100
AcDbVertex
100
AcDb2dVertex
 10
378.420667227073
 20
230.905988659396
 30
0.0
 70
     0
 50
0.0
  0
VERTEX
  5
33
100
AcDbEntity
  8
0
100
AcDbVertex
100
AcDb2dVertex
 10
376.443711435684
 20
237.882461887334
 30
0.0
 70
     0
 50
0.0
  0
VERTEX
  5
34
100
AcDbEntity
  8
0
100
AcDbVertex
100
AcDb2dVertex
 10
374.417496781433
 20
244.894814649783
 30
0.0
 70
     0
 50
0.0
  0
VERTEX
  5
35
100
AcDbEntity
  8
0
100
AcDbVertex
100
AcDb2dVertex
 10
372.342659481669
 20
251.943320711875
 30
0.0
 70
     0
 50
0.0
  0
VERTEX
  5
36
100
AcDbEntity
  8
0
100
AcDbVertex
100
AcDb2dVertex
 10
370.21984913492
 20
259.028204736318
 30
0.0
 70
     0
 50
0.0
  0
VERTEX
  5
37
100
AcDbEntity
  8
0
100
AcDbVertex
100
AcDb2dVertex
 10
368.049728613255
 20
266.149642626377
 30
0.0
 70
     0
 50
0.0
  0
VERTEX
  5
38
100
AcDbEntity
  8
0
100
AcDbVertex
100
AcDb2dVertex
 10
365.832973952308
 20
273.307761941574
 30
0.0
 70
     0
 50
0.0
  0
VERTEX
  5
39
100
AcDbEntity
  8
0
100
AcDbVertex
100
AcDb2dVertex
 10
363.570274237862
 20
280.502642380688
 30
0.0
 70
     0
 50
0.0
  0
VERTEX
  5
3A
100
AcDbEntity
  8
0
100
AcDbVertex
100
AcDb2dVertex
 10
361.262331487977
 20
287.734316326867
 30
0.0
 70
     0
 50
0.0
  0
VERTEX
  5
3B
100
AcDbEntity
  8
0
100
AcDbVertex
100
AcDb2dVertex
 10
358.909860529849
 20
295.002769449781
 30
0.0
 70
     0
 50
0.0
  0
VERTEX
  5
3C
100
AcDbEntity
  8
0
100
AcDbVertex
100
AcDb2dVertex
 10
356.513588870672
 20
302.307941359971
 30
0.0
 70
     0
 50
0.0
  0
VERTEX
  5
3D
100
AcDbEntity
  8
0
100
AcDbVertex
100
AcDb2dVertex
 10
354.07425656204
 20
309.649726310502
 30
0.0
 70
     0
 50
0.0
  0
VERTEX
  5
3E
100
AcDbEntity
  8
0
100
AcDbVertex
100
AcDb2dVertex
 10
351.592616057326
 20
317.027973941739
 30
0.0
 70
     0
 50
0.0
  0
VERTEX
  5
3F
100
AcDbEntity
  8
0
100
AcDbVertex
100
AcDb2dVertex
 10
349.069432061873
 20
324.44249006462
 30
0.0
 70
     0
 50
0.0
  0
VERTEX
  5
40
100
AcDbEntity
  8
0
100
AcDbVertex
100
AcDb2dVertex
 10
346.505481375637
 20
331.893037478742
 30
0.0
 70
     0
 50
0.0
  0
VERTEX
  5
41
100
AcDbEntity
  8
0
100
AcDbVertex
100
AcDb2dVertex
 10
343.901552728242
 20
339.379336821257
 30
0.0
 70
     0
 50
0.0
  0
VERTEX
  5
42
100
AcDbEntity
  8
0
100
AcDbVertex
100
AcDb2dVertex
 10
341.25844660633
 20
346.901067443187
 30
0.0
 70
     0
 50
0.0
  0
VERTEX
  5
43
100
AcDbEntity
  8
0
100
AcDbVertex
100
AcDb2dVertex
 10
338.576975073243
 20
354.457868309825
 30
0.0
 70
     0
 50
0.0
  0
VERTEX
  5
44
100
AcDbEntity
  8
0
100
AcDbVertex
100
AcDb2dVertex
 10
335.857961581068
 20
362.049338922214
 30
0.0
 70
     0
 50
0.0
  0
VERTEX
  5
45
100
AcDbEntity
  8
0
100
AcDbVertex
100
AcDb2dVertex
 10
333.102240775164
 20
369.675040256923
 30
0.0
 70
     0
 50
0.0
  0
VERTEX
  5
46
100
AcDbEntity
  8
0
100
AcDbVertex
100
AcDb2dVertex
 10
330.31065829131
 20
377.334495721535
 30
0.0
 70
     0
 50
0.0
  0
VERTEX
  5
47
100
AcDbEntity
  8
0
100
AcDbVertex
100
AcDb2dVertex
 10
327.484070545657
 20
385.027192123468
 30
0.0
 70
     0
 50
0.0
  0
VERTEX
  5
48
100
AcDbEntity
  8
0
100
AcDbVertex
100
AcDb2dVertex
 10
324.623344517614
 20
392.752580650211
 30
0.0
 70
     0
 50
0.0
  0
VERTEX
  5
49
100
AcDbEntity
  8
0
100
AcDbVertex
100
AcDb2dVertex
 10
321.72935752604
 20
400.510077858601
 30
0.0
 70
     0
 50
0.0
  0
VERTEX
  5
4A
100
AcDbEntity
  8
0
100
AcDbVertex
100
AcDb2dVertex
 10
318.802996998754
 20
408.299066671973
 30
0.0
 70
     0
 50
0.0
  0
VERTEX
  5
4B
100
AcDbEntity
  8
0
100
AcDbVertex
100
AcDb2dVertex
 10
315.845160235816
 20
416.118897383082
 30
0.0
 70
     0
 50
0.0
  0
VERTEX
  5
4C
100
AcDbEntity
  8
0
100
AcDbVertex
100
AcDb2dVertex
 10
312.856754166669
 20
423.9688886618
 30
0.0
 70
     0
 50
0.0
  0
VERTEX
  5
4D
100
AcDbEntity
  8
0
100
AcDbVertex
100
AcDb2dVertex
 10
309.838695101501
 20
431.848328566033
 30
0.0
 70
     0
 50
0.0
  0
VERTEX
  5
4E
100
AcDbEntity
  8
0
100
AcDbVertex
100
AcDb2dVertex
 10
306.791908477012
 20
439.756475554991
 30
0.0
 70
     0
 50
0.0
  0
VERTEX
  5
4F
100
AcDbEntity
  8
0
100
AcDbVertex
100
AcDb2dVertex
 10
303.717328596855
 20
447.692559503726
 30
0.0
 70
     0
 50
0.0
  0
VERTEX
  5
50
100
AcDbEntity
  8
0
100
AcDbVertex
100
AcDb2dVertex
 10
300.615898367052
 20
455.655782718015
 30
0.0
 70
     0
 50
0.0
  0
VERTEX
  5
51
100
AcDbEntity
  8
0
100
AcDbVertex
100
AcDb2dVertex
 10
297.488569026522
 20
463.645320949095
 30
0.0
 70
     0
 50
0.0
  0
VERTEX
  5
52
100
AcDbEntity
  8
0
100
AcDbVertex
100
AcDb2dVertex
 10
294.33629987313
 20
471.660324407219
 30
0.0
 70
     0
 50
0.0
  0
VERTEX
  5
53
100
AcDbEntity
  8
0
100
AcDbVertex
100
AcDb2dVertex
 10
291.160057985264
 20
479.699918774035
 30
0.0
 70
     0
 50
0.0
  0
VERTEX
  5
54
100
AcDbEntity
  8
0
100
AcDbVertex
100
AcDb2dVertex
 10
287.960817939452
 20
487.763206212657
 30
0.0
 70
     0
 50
0.0
  0
VERTEX
  5
55
100
AcDbEntity
  8
0
100
AcDbVertex
100
AcDb2dVertex
 10
284.739561523976
 20
495.849266375712
 30
0.0
 70
     0
 50
0.0
  0
VERTEX
  5
56
100
AcDbEntity
  8
0
100
AcDbVertex
100
AcDb2dVertex
 10
281.497277448888
 20
503.957157410579
 30
0.0
 70
     0
 50
0.0
  0
VERTEX
  5
57
100
AcDbEntity
  8
0
100
AcDbVertex
100
AcDb2dVertex
 10
278.234961052541
 20
512.085916961811
 30
0.0
 70
     0
 50
0.0
  0
VERTEX
  5
58
100
AcDbEntity
  8
0
100
AcDbVertex
100
AcDb2dVertex
 10
274.953614004887
 20
520.23456317046
 30
0.0
 70
     0
 50
0.0
  0
VERTEX
  5
59
100
AcDbEntity
  8
0
100
AcDbVertex
100
AcDb2dVertex
 10
271.654244007751
 20
528.402095670122
 30
0.0
 70
     0
 50
0.0
  0
VERTEX
  5
5A
100
AcDbEntity
  8
0
100
AcDbVertex
100
AcDb2dVertex
 10
268.337864492236
 20
536.587496579696
 30
0.0
 70
     0
 50
0.0
  0
VERTEX
  5
5B
100
AcDbEntity
  8
0
100
AcDbVertex
100
AcDb2dVertex
 10
265.005494313344
 20
544.789731493069
 30
0.0
 70
     0
 50
0.0
  0
VERTEX
  5
5C
100
AcDbEntity
  8
0
100
AcDbVertex
100
AcDb2dVertex
 10
261.658157442338
 20
553.007750464849
 30
0.0
 70
     0
 50
0.0
  0
VERTEX
  5
5D
100
AcDbEntity
  8
0
100
AcDbVertex
100
AcDb2dVertex
 10
258.296882656622
 20
561.240488993148
 30
0.0
 70
     0
 50
0.0
  0
VERTEX
  5
5E
100
AcDbEntity
  8
0
100
AcDbVertex
100
AcDb2dVertex
 10
252.381830534422
 20
575.696675624151
 30
0.0
 70
     0
 50
0.0
  0
VERTEX
  5
5F
100
AcDbEntity
  8
0
100
AcDbVertex
100
AcDb2dVertex
 10
160.415983230172
 20
575.696675624151
 30
0.0
 70
     0
 50
0.0
  0
VERTEX
  5
60
100
AcDbEntity
  8
0
100
AcDbVertex
100
AcDb2dVertex
 10
154.500931107972
 20
561.240488993147
 30
0.0
 70
     0
 50
0.0
  0
VERTEX
  5
61
100
AcDbEntity
  8
0
100
AcDbVertex
100
AcDb2dVertex
 10
151.139656322256
 20
553.007750464849
 30
0.0
 70
     0
 50
0.0
  0
VERTEX
  5
62
100
AcDbEntity
  8
0
100
AcDbVertex
100
AcDb2dVertex
 10
147.79231945125
 20
544.789731493069
 30
0.0
 70
     0
 50
0.0
  0
VERTEX
  5
63
100
AcDbEntity
  8
0
100
AcDbVertex
100
AcDb2dVertex
 10
144.459949272358
 20
536.587496579696
 30
0.0
 70
     0
 50
0.0
  0
VERTEX
  5
64
100
AcDbEntity
  8
0
100
AcDbVertex
100
AcDb2dVertex
 10
141.143569756843
 20
528.402095670122
 30
0.0
 70
     0
 50
0.0
  0
VERTEX
  5
65
100
AcDbEntity
  8
0
100
AcDbVertex
100
AcDb2dVertex
 10
137.844199759707
 20
520.23456317046
 30
0.0
 70
     0
 50
0.0
  0
VERTEX
  5
66
100
AcDbEntity
  8
0
100
AcDbVertex
100
AcDb2dVertex
 10
134.562852712053
 20
512.085916961811
 30
0.0
 70
     0
 50
0.0
  0
VERTEX
  5
67
100
AcDbEntity
  8
0
100
AcDbVertex
100
AcDb2dVertex
 10
131.300536315706
 20
503.957157410579
 30
0.0
 70
     0
 50
0.0
  0
VERTEX
  5
68
100
AcDbEntity
  8
0
100
AcDbVertex
100
AcDb2dVertex
 10
128.058252240618
 20
495.849266375712
 30
0.0
 70
     0
 50
0.0
  0
VERTEX
  5
69
100
AcDbEntity
  8
0
100
AcDbVertex
100
AcDb2dVertex
 10
124.836995825142
 20
487.763206212657
 30
0.0
 70
     0
 50
0.0
  0
VERTEX
  5
6A
100
AcDbEntity
  8
0
100
AcDbVertex
100
AcDb2dVertex
 10
121.63775577933
 20
479.699918774035
 30
0.0
 70
     0
 50
0.0
  0
VERTEX
  5
6B
100
AcDbEntity
  8
0
100
AcDbVertex
100
AcDb2dVertex
 10
118.461513891464
 20
471.660324407219
 30
0.0
 70
     0
 50
0.0
  0
VERTEX
  5
6C
100
AcDbEntity
  8
0
100
AcDbVertex
100
AcDb2dVertex
 10
115.309244738071
 20
463.645320949095
 30
0.0
 70
     0
 50
0.0
  0
VERTEX
  5
6D
100
AcDbEntity
  8
0
100
AcDbVertex
100
AcDb2dVertex
 10
112.181915397542
 20
455.655782718015
 30
0.0
 70
     0
 50
0.0
  0
VERTEX
  5
6E
100
AcDbEntity
  8
0
100
AcDbVertex
100
AcDb2dVertex
 10
109.080485167738
 20
447.692559503725
 30
0.0
 70
     0
 50
0.0
  0
VERTEX
  5
6F
100
AcDbEntity
  8
0
100
AcDbVertex
100
AcDb2dVertex
 10
106.005905287582
 20
439.756475554991
 30
0.0
 70
     0
 50
0.0
  0
VERTEX
  5
70
100
AcDbEntity
  8
0
100
AcDbVertex
100
AcDb2dVertex
 10
102.959118663093
 20
431.848328566033
 30
0.0
 70
     0
 50
0.0
  0
VERTEX
  5
71
100
AcDbEntity
  8
0
100
AcDbVertex
100
AcDb2dVertex
 10
99.941059597925
 20
423.9688886618
 30
0.0
 70
     0
 50
0.0
  0
VERTEX
  5
72
100
AcDbEntity
  8
0
100
AcDbVertex
100
AcDb2dVertex
 10
96.952653528778
 20
416.118897383082
 30
0.0
 70
     0
 50
0.0
  0
VERTEX
  5
73
100
AcDbEntity
  8
0
100
AcDbVertex
100
AcDb2dVertex
 10
93.99481676584
 20
408.299066671973
 30
0.0
 70
     0
 50
0.0
  0
VERTEX
  5
74
100
AcDbEntity
  8
0
100
AcDbVertex
100
AcDb2dVertex
 10
91.068456238554
 20
400.510077858601
 30
0.0
 70
     0
 50
0.0
  0
VERTEX
  5
75
100
AcDbEntity
  8
0
100
AcDbVertex
100
AcDb2dVertex
 10
88.174469246979
 20
392.752580650211
 30
0.0
 70
     0
 50
0.0
  0
VERTEX
  5
76
100
AcDbEntity
  8
0
100
AcDbVertex
100
AcDb2dVertex
 10
85.313743218937
 20
385.027192123468
 30
0.0
 70
     0
 50
0.0
  0
VERTEX
  5
77
100
AcDbEntity
  8
0
100
AcDbVertex
100
AcDb2dVertex
 10
82.487155473284
 20
377.334495721534
 30
0.0
 70
     0
 50
0.0
  0
VERTEX
  5
78
100
AcDbEntity
  8
0
100
AcDbVertex
100
AcDb2dVertex
 10
79.69557298943
 20
369.675040256923
 30
0.0
 70
     0
 50
0.0
  0
VERTEX
  5
79
100
AcDbEntity
  8
0
100
AcDbVertex
100
AcDb2dVertex
 10
76.939852183526
 20
362.049338922214
 30
0.0
 70
     0
 50
0.0
  0
VERTEX
  5
7A
100
AcDbEntity
  8
0
100
AcDbVertex
100
AcDb2dVertex
 10
74.220838691351
 20
354.457868309825
 30
0.0
 70
     0
 50
0.0
  0
VERTEX
  5
7B
100
AcDbEntity
  8
0
100
AcDbVertex
100
AcDb2dVertex
 10
71.539367158264
 20
346.901067443187
 30
0.0
 70
     0
 50
0.0
  0
VERTEX
  5
7C
100
AcDbEntity
  8
0
100
AcDbVertex
100
AcDb2dVertex
 10
68.896261036352
 20
339.379336821257
 30
0.0
 70
     0
 50
0.0
  0
VERTEX
  5
7D
100
AcDbEntity
  8
0
100
AcDbVertex
100
AcDb2dVertex
 10
66.292332388957
 20
331.893037478742
 30
0.0
 70
     0
 50
0.0
  0
VERTEX
  5
7E
100
AcDbEntity
  8
0
100
AcDbVertex
100
AcDb2dVertex
 10
63.728381702721
 20
324.44249006462
 30
0.0
 70
     0
 50
0.0
  0
VERTEX
  5
7F
100
AcDbEntity
  8
0
100
AcDbVertex
100
AcDb2dVertex
 10
61.205197707268
 20
317.027973941739
 30
0.0
 70
     0
 50
0.0
  0
VERTEX
  5
80
100
AcDbEntity
  8
0
100
AcDbVertex
100
AcDb2dVertex
 10
58.723557202554
 20
309.649726310502
 30
0.0
 70
     0
 50
0.0
  0
VERTEX
  5
81
100
AcDbEntity
  8
0
100
AcDbVertex
100
AcDb2dVertex
 10
56.284224893922
 20
302.307941359971
 30
0.0
 70
     0
 50
0.0
  0
VERTEX
  5
82
100
AcDbEntity
  8
0
100
AcDbVertex
100
AcDb2dVertex
 10
53.887953234745
 20
295.002769449781
 30
0.0
 70
     0
 50
0.0
  0
VERTEX
  5
83
100
AcDbEntity
  8
0
100
AcDbVertex
100
AcDb2dVertex
 10
51.535482276617
 20
287.734316326867
 30
0.0
 70
     0
 50
0.0
  0
VERTEX
  5
84
100
AcDbEntity
  8
0
100
AcDbVertex
100
AcDb2dVertex
 10
49.227539526732
 20
280.502642380688
 30
0.0
 70
     0
 50
0.0
  0
VERTEX
  5
85
100
AcDbEntity
  8
0
100
AcDbVertex
100
AcDb2dVertex
 10
46.964839812285
 20
273.307761941574
 30
0.0
 70
     0
 50
0.0
  0
VERTEX
  5
86
100
AcDbEntity
  8
0
100
AcDbVertex
100
AcDb2dVertex
 10
44.748085151339
 20
266.149642626377
 30
0.0
 70
     0
 50
0.0
  0
VERTEX
  5
87
100
AcDbEntity
  8
0
100
AcDbVertex
100
AcDb2dVertex
 10
42.577964629673
 20
259.028204736318
 30
0.0
 70
     0
 50
0.0
  0
VERTEX
  5
88
100
AcDbEntity
  8
0
100
AcDbVertex
100
AcDb2dVertex
 10
40.455154282925
 20
251.943320711875
 30
0.0
 70
     0
 50
0.0
  0
VERTEX
  5
89
100
AcDbEntity
  8
0
100
AcDbVertex
100
AcDb2dVertex
 10
38.380316983161
 20
244.894814649783
 30
0.0
 70
     0
 50
0.0
  0
VERTEX
  5
8A
100
AcDbEntity
  8
0
100
AcDbVertex
100
AcDb2dVertex
 10
36.35410232891
 20
237.882461887334
 30
0.0
 70
     0
 50
0.0
  0
VERTEX
  5
8B
100
AcDbEntity
  8
0
100
AcDbVertex
100
AcDb2dVertex
 10
34.377146537521
 20
230.905988659396
 30
0.0
 70
     0
 50
0.0
  0
VERTEX
  5
8C
100
AcDbEntity
  8
0
100
AcDbVertex
100
AcDb2dVertex
 10
32.450072338473
 20
223.965071833331
 30
0.0
 70
     0
 50
0.0
  0
VERTEX
  5
8D
100
AcDbEntity
  8
0
100
AcDbVertex
100
AcDb2dVertex
 10
30.573488866173
 20
217.059338727312
 30
0.0
 70
     0
 50
0.0
  0
VERTEX
  5
8E
100
AcDbEntity
  8
0
100
AcDbVertex
100
AcDb2dVertex
 10
28.747991550538
 20
210.188367017241
 30
0.0
 70
     0
 50
0.0
  0
VERTEX
  5
8F
100
AcDbEntity
  8
0
100
AcDbVertex
100
AcDb2dVertex
 10
26.974162003525
 20
203.351684737457
 30
0.0
 70
     0
 50
0.0
  0
VERTEX
  5
90
100
AcDbEntity
  8
0
100
AcDbVertex
100
AcDb2dVertex
 10
25.252567899565
 20
196.548770380038
 30
0.0
 70
     0
 50
0.0
  0
VERTEX
  5
91
100
AcDbEntity
  8
0
100
AcDbVertex
100
AcDb2dVertex
 10
23.583762847773
 20
189.779053097455
 30
0.0
 70
     0
 50
0.0
  0
VERTEX
  5
92
100
AcDbEntity
  8
0
100
AcDbVertex
100
AcDb2dVertex
 10
21.968286253639
 20
183.041913012669
 30
0.0
 70
     0
 50
0.0
  0
VERTEX
  5
93
100
AcDbEntity
  8
0
100
AcDbVertex
100
AcDb2dVertex
 10
20.406663167822
 20
176.336681640441
 30
0.0
 70
     0
 50
0.0
  0
VERTEX
  5
94
100
AcDbEntity
  8
0
100
AcDbVertex
100
AcDb2dVertex
 10
18.899404119669
 20
169.662642423019
 30
0.0
 70
     0
 50
0.0
  0
VERTEX
  5
95
100
AcDbEntity
  8
0
100
AcDbVertex
100
AcDb2dVertex
 10
17.447004933028
 20
163.019031382583
 30
0.0
 70
     0
 50
0.0
  0
VERTEX
  5
96
100
AcDbEntity
  8
0
100
AcDbVertex
100
AcDb2dVertex
 10
16.049946522049
 20
156.40503789223
 30
0.0
 70
     0
 50
0.0
  0
VERTEX
  5
97
100
AcDbEntity
  8
0
100
AcDbVertex
100
AcDb2dVertex
 10
14.708694664784
 20
149.819805566356
 30
0.0
 70
     0
 50
0.0
  0
VERTEX
  5
98
100
AcDbEntity
  8
0
100
AcDbVertex
100
AcDb2dVertex
 10
13.423699752606
 20
143.262433270228
 30
0.0
 70
     0
 50
0.0
  0
VERTEX
  5
99
100
AcDbEntity
  8
0
100
AcDbVertex
100
AcDb2dVertex
 10
12.19539651384
 20
136.731976247937
 30
0.0
 70
     0
 50
0.0
  0
VERTEX
  5
9A
100
AcDbEntity
  8
0
100
AcDbVertex
100
AcDb2dVertex
 10
11.02420371032
 20
130.227447366514
 30
0.0
 70
     0
 50
0.0
  0
VERTEX
  5
9B
100
AcDbEntity
  8
0
100
AcDbVertex
100
AcDb2dVertex
 10
9.910523806164
 20
123.747818473244
 30
0.0
 70
     0
 50
0.0
  0
VERTEX
  5
9C
100
AcDbEntity
  8
0
100
AcDbVertex
100
AcDb2dVertex
 10
8.854742608594
 20
117.292021862112
 30
0.0
 70
     0
 50
0.0
  0
VERTEX
  5
9D
100
AcDbEntity
  8
0
100
AcDbVertex
100
AcDb2dVertex
 10
7.857228881356
 20
110.858951844316
 30
0.0
 70
     0
 50
0.0
  0
VERTEX
  5
9E
100
AcDbEntity
  8
0
100
AcDbVertex
100
AcDb2dVertex
 10
6.918333932033
 20
104.447466417048
 30
0.0
 70
     0
 50
0.0
  0
VERTEX
  5
9F
100
AcDbEntity
  8
0
100
AcDbVertex
100
AcDb2dVertex
 10
6.038391175383
 20
98.0563890237
 30
0.0
 70
     0
 50
0.0
  0
VERTEX
  5
A0
100
AcDbEntity
  8
0
100
AcDbVertex
100
AcDb2dVertex
 10
5.217715675694
 20
91.684510398268
 30
0.0
 70
     0
 50
0.0
  0
VERTEX
  5
A1
100
AcDbEntity
  8
0
100
AcDbVertex
100
AcDb2dVertex
 10
4.456603672061
 20
85.330590485988
 30
0.0
 70
     0
 50
0.0
  0
VERTEX
  5
A2
100
AcDbEntity
  8
0
100
AcDbVertex
100
AcDb2dVertex
 10
3.755332091341
 20
78.993360432095
 30
0.0
 70
     0
 50
0.0
  0
VERTEX
  5
A3
100
AcDbEntity
  8
0
100
AcDbVertex
100
AcDb2dVertex
 10
3.114158054394
 20
72.671524630241
 30
0.0
 70
     0
 50
0.0
  0
VERTEX
  5
A4
100
AcDbEntity
  8
0
100
AcDbVertex
100
AcDb2dVertex
 10
2.53331838198
 20
66.363762822432
 30
0.0
 70
     0
 50
0.0
  0
VERTEX
  5
A5
100
AcDbEntity
  8
0
100
AcDbVertex
100
AcDb2dVertex
 10
2.01302910729
 20
60.068732242343
 30
0.0
 70
     0
 50
0.0
  0
VERTEX
  5
A6
100
AcDbEntity
  8
0
100
AcDbVertex
100
AcDb2dVertex
 10
1.553485002613
 20
53.785069794417
 30
0.0
 70
     0
 50
0.0
  0
VERTEX
  5
A7
100
AcDbEntity
  8
0
100
AcDbVertex
100
AcDb2dVertex
 10
1.154859127898
 20
47.51139426181
 30
0.0
 70
     0
 50
0.0
  0
VERTEX
  5
A8
100
AcDbEntity
  8
0
100
AcDbVertex
100
AcDb2dVertex
 10
0.817302409107
 20
41.24630853679
 30
0.0
 70
     0
 50
0.0
  0
VERTEX
  5
A9
100
AcDbEntity
  8
0
100
AcDbVertex
100
AcDb2dVertex
 10
0.540943254058
 20
34.988401868268
 30
0.0
 70
     0
 50
0.0
  0
VERTEX
  5
AA
100
AcDbEntity
  8
0
100
AcDbVertex
100
AcDb2dVertex
 10
0.325887213125
 20
28.736252121732
 30
0.0
 70
     0
 50
0.0
  0
VERTEX
  5
AB
100
AcDbEntity
  8
0
100
AcDbVertex
100
AcDb2dVertex
 10
0.172216691493
 20
22.488428047991
 30
0.0
 70
     0
 50
0.0
  0
VERTEX
  5
AC
100
AcDbEntity
  8
0
100
AcDbVertex
100
AcDb2dVertex
 10
0.079990718843
 20
16.243491557773
 30
0.0
 70
     0
 50
0.0
  0
VERTEX
  5
AD
100
AcDbEntity
  8
0
100
AcDbVertex
100
AcDb2dVertex
 10
0.0
 20
0.0
 30
0.0
 70
     0
 50
0.0
  0
VERTEX
  5
AE
100
AcDbEntity
  8
0
100
AcDbVertex
100
AcDb2dVertex
 10
412.797813764594
 20
0.0
 30
0.0
 70
     0
 50
0.0
  0
SEQEND
  5
0
100
AcDbEntity
  8
0
  0
ENDSEC
  0
SECTION
  2
OBJECTS
  0
ENDSEC
  0
EOF
