<?xml version="1.0" encoding="UTF-8" standalone="no"?>
<!-- Created with Inkscape (http://www.inkscape.org/) -->

<svg
   width="104.28576mm"
   height="104.28572mm"
   viewBox="0 0 104.28576 104.28572"
   version="1.1"
   id="svg1"
   xml:space="preserve"
   inkscape:version="1.3 (0e150ed6c4, 2023-07-21)"
   sodipodi:docname="logo.svg"
   inkscape:export-filename="parachute.png"
   inkscape:export-xdpi="31.175877"
   inkscape:export-ydpi="31.175877"
   xmlns:inkscape="http://www.inkscape.org/namespaces/inkscape"
   xmlns:sodipodi="http://sodipodi.sourceforge.net/DTD/sodipodi-0.dtd"
   xmlns="http://www.w3.org/2000/svg"
   xmlns:svg="http://www.w3.org/2000/svg"><sodipodi:namedview
     id="namedview1"
     pagecolor="#ffffff"
     bordercolor="#666666"
     borderopacity="1.0"
     inkscape:showpageshadow="2"
     inkscape:pageopacity="0.0"
     inkscape:pagecheckerboard="0"
     inkscape:deskcolor="#d1d1d1"
     inkscape:document-units="mm"
     inkscape:zoom="1.9830139"
     inkscape:cx="131.11355"
     inkscape:cy="249.87217"
     inkscape:window-width="1920"
     inkscape:window-height="1001"
     inkscape:window-x="-9"
     inkscape:window-y="-9"
     inkscape:window-maximized="1"
     inkscape:current-layer="g52" /><defs
     id="defs1" /><g
     inkscape:label="Layer 1"
     inkscape:groupmode="layer"
     id="layer1"
     transform="translate(-53.480114,-159.56989)"><g
       id="g52"
       transform="rotate(45,98.618588,218.71735)"><path
         style="fill:#ff4f00;fill-opacity:1;stroke:#000000;stroke-width:0.264583px;stroke-linecap:butt;stroke-linejoin:miter;stroke-opacity:1"
         d="m 106.99084,158.4278 9.64807,8.75005 7.15968,13.82856 3.3448,14.1938 0.60041,7.63429 5.51508,-5.66594 6.50075,-0.34163 6.53023,4.08734 -2.92434,-13.18276 -7.95751,-13.4973 -12.53458,-10.60222 -10.36293,-4.52819 z"
         id="path37" /><path
         style="fill:#ff4f00;fill-opacity:1;stroke:#000000;stroke-width:0.264583px;stroke-linecap:butt;stroke-linejoin:miter;stroke-opacity:1"
         d="m 51.451585,201.79546 5.6498,-4.85576 7.58434,0.5427 5.04624,4.84468 2.14764,-16.03667 5.59687,-14.35863 6.90865,-8.96281 4.47944,-4.72314 -15.62583,6.0662 -9.19448,7.45336 -7.64514,10.47882 -4.02841,10.03524 z"
         id="path38" /><path
         style="fill:#ffffff;fill-opacity:1;stroke:#000000;stroke-width:0.264583px;stroke-linecap:butt;stroke-linejoin:miter;stroke-opacity:1"
         d="m 127.80961,202.32708 -3.07083,-19.36148 -5.98269,-13.20007 -10.07908,-11.5197 -8.34359,-1.38733 3.3921,6.51607 3.14349,14.52699 1.10816,15.48235 0.54869,9.14046 5.95456,-5.40104 6.58296,-0.239 4.28997,2.64387 z"
         id="path39" /><path
         style="fill:none;fill-opacity:1;stroke:#000000;stroke-width:3;stroke-linejoin:bevel;stroke-dasharray:none;paint-order:markers fill stroke"
         id="path40"
         sodipodi:type="arc"
         sodipodi:cx="98.618462"
         sodipodi:cy="205.01833"
         sodipodi:rx="47.970135"
         sodipodi:ry="47.970135"
         sodipodi:start="3.1415927"
         sodipodi:end="0"
         sodipodi:open="true"
         sodipodi:arc-type="arc"
         d="M 50.648327,205.01833 A 47.970135,47.970135 0 0 1 98.618462,157.04819 47.970135,47.970135 0 0 1 146.5886,205.01833" /><path
         style="fill:#ff4f00;fill-opacity:1;stroke:#000000;stroke-width:0.264583px;stroke-linecap:butt;stroke-linejoin:miter;stroke-opacity:1"
         d="m 97.055436,157.07368 -3.23938,6.30089 -3.48176,17.18428 -1.318581,21.96552 6.218061,-5.49543 6.588234,-0.0619 6.38539,4.42629 -1.08858,-18.90549 -2.60795,-15.46704 -3.88,-8.98809 -3.422714,-1.17421 z"
         id="path41" /><path
         style="fill:none;fill-opacity:1;stroke:#000000;stroke-width:3;stroke-linecap:round;stroke-linejoin:bevel;stroke-dasharray:none;paint-order:markers fill stroke"
         id="path42"
         sodipodi:type="arc"
         sodipodi:cx="60.220989"
         sodipodi:cy="205.37584"
         sodipodi:rx="9.5739098"
         sodipodi:ry="8.9231348"
         sodipodi:start="3.1415927"
         sodipodi:end="0"
         sodipodi:open="true"
         sodipodi:arc-type="arc"
         d="m 50.647079,205.37584 a 9.5739098,8.9231348 0 0 1 9.57391,-8.92314 9.5739098,8.9231348 0 0 1 9.57391,8.92314" /><path
         style="fill:#ffffff;fill-opacity:1;stroke:#000000;stroke-width:0.264583px;stroke-linecap:butt;stroke-linejoin:miter;stroke-opacity:1"
         d="m 69.731965,202.32708 3.07083,-19.36148 5.98269,-13.20007 10.07908,-11.5197 8.343591,-1.38733 -3.3921,6.51607 -3.14349,14.52699 -1.10816,15.48235 -0.548691,9.14046 -5.95456,-5.40104 -6.58296,-0.239 -4.28997,2.64387 z"
         id="path43" /><path
         style="fill:none;stroke:#000000;stroke-width:2.5;stroke-linejoin:bevel;stroke-dasharray:none;paint-order:markers fill stroke"
         id="path44"
         sodipodi:type="arc"
         sodipodi:cx="98.618462"
         sodipodi:cy="204.40431"
         sodipodi:rx="28.914032"
         sodipodi:ry="47.602444"
         sodipodi:start="3.1415927"
         sodipodi:end="0"
         sodipodi:open="true"
         sodipodi:arc-type="arc"
         d="m 69.70443,204.40431 a 28.914032,47.602444 0 0 1 28.914032,-47.60244 28.914032,47.602444 0 0 1 28.914028,47.60244" /><path
         style="fill:none;fill-opacity:1;stroke:#000000;stroke-width:3;stroke-linecap:round;stroke-linejoin:bevel;stroke-dasharray:none;paint-order:markers fill stroke"
         id="path45"
         sodipodi:type="arc"
         sodipodi:cx="79.419777"
         sodipodi:cy="205.37584"
         sodipodi:rx="9.5739098"
         sodipodi:ry="8.9231348"
         sodipodi:start="3.1415927"
         sodipodi:end="0"
         sodipodi:open="true"
         sodipodi:arc-type="arc"
         d="m 69.845867,205.37584 a 9.5739098,8.9231348 0 0 1 9.57391,-8.92314 9.5739098,8.9231348 0 0 1 9.57391,8.92314" /><path
         style="fill:none;fill-opacity:1;stroke:#000000;stroke-width:2.5;stroke-linejoin:bevel;stroke-dasharray:none;paint-order:markers fill stroke"
         id="path46"
         sodipodi:type="arc"
         sodipodi:cx="98.618462"
         sodipodi:cy="204.86333"
         sodipodi:rx="9.614212"
         sodipodi:ry="47.891468"
         sodipodi:start="3.1415927"
         sodipodi:end="0"
         sodipodi:open="true"
         sodipodi:arc-type="arc"
         d="m 89.00425,204.86333 a 9.614212,47.891468 0 0 1 9.614212,-47.89147 9.614212,47.891468 0 0 1 9.614208,47.89147" /><path
         style="fill:none;fill-opacity:1;stroke:#000000;stroke-width:3;stroke-linecap:round;stroke-linejoin:bevel;stroke-dasharray:none;paint-order:markers fill stroke"
         id="path47"
         sodipodi:type="arc"
         sodipodi:cx="98.618462"
         sodipodi:cy="205.37584"
         sodipodi:rx="9.5739098"
         sodipodi:ry="8.9231348"
         sodipodi:start="3.1415927"
         sodipodi:end="0"
         sodipodi:open="true"
         sodipodi:arc-type="arc"
         d="m 89.044552,205.37584 a 9.5739098,8.9231348 0 0 1 9.57391,-8.92314 9.5739098,8.9231348 0 0 1 9.573908,8.92314" /><path
         style="fill:none;fill-opacity:1;stroke:#000000;stroke-width:3;stroke-linecap:round;stroke-linejoin:bevel;stroke-dasharray:none;paint-order:markers fill stroke"
         id="path48"
         sodipodi:type="arc"
         sodipodi:cx="117.81725"
         sodipodi:cy="205.37584"
         sodipodi:rx="9.5739098"
         sodipodi:ry="8.9231348"
         sodipodi:start="3.1415927"
         sodipodi:end="0"
         sodipodi:open="true"
         sodipodi:arc-type="arc"
         d="m 108.24334,205.37584 a 9.5739098,8.9231348 0 0 1 9.57391,-8.92314 9.5739098,8.9231348 0 0 1 9.57391,8.92314" /><path
         style="fill:none;fill-opacity:1;stroke:#000000;stroke-width:3;stroke-linecap:round;stroke-linejoin:bevel;stroke-dasharray:none;paint-order:markers fill stroke"
         id="path49"
         sodipodi:type="arc"
         sodipodi:cx="137.0161"
         sodipodi:cy="205.37584"
         sodipodi:rx="9.5739098"
         sodipodi:ry="8.9231348"
         sodipodi:start="3.1415927"
         sodipodi:end="0"
         sodipodi:open="true"
         sodipodi:arc-type="arc"
         d="m 127.44219,205.37584 a 9.5739098,8.9231348 0 0 1 9.57391,-8.92314 9.5739098,8.9231348 0 0 1 9.57391,8.92314" /><path
         style="fill:none;stroke:#000000;stroke-width:3;stroke-linecap:round;stroke-linejoin:round;stroke-dasharray:none;stroke-opacity:1"
         d="m 50.558705,205.46448 48.059731,75.01596 48.060034,-75.01596"
         id="path50"
         sodipodi:nodetypes="ccc" /><path
         style="fill:none;stroke:#000000;stroke-width:3;stroke-linecap:round;stroke-linejoin:round;stroke-dasharray:none;stroke-opacity:1"
         d="m 69.741825,205.46448 28.876611,75.01596 28.825804,-75.01596"
         id="path51"
         sodipodi:nodetypes="ccc" /><path
         style="fill:none;stroke:#000000;stroke-width:3;stroke-linecap:round;stroke-linejoin:round;stroke-dasharray:none;stroke-opacity:1"
         d="m 88.975905,205.46448 9.642531,75.01596 9.591584,-75.01596"
         id="path52"
         sodipodi:nodetypes="ccc" /></g></g></svg>
